<?xml version="1.0" encoding="UTF-8" standalone="no"?>
<svg width="400" height="250" viewBox="0 0 400 250" xmlns="http://www.w3.org/2000/svg">
  <!-- Background -->
  <rect x="0" y="0" width="400" height="250" fill="#091a24" rx="8" ry="8"/>
  <defs>
    <radialGradient id="bg-gradient" cx="0.1" cy="0.1" r="1.5" fx="0.1" fy="0.1">
      <stop offset="0%" stop-color="#00de88" stop-opacity="0.1"/>
      <stop offset="100%" stop-color="#091a24" stop-opacity="0"/>
    </radialGradient>
  </defs>
  <rect x="0" y="0" width="400" height="250" fill="url(#bg-gradient)" rx="8" ry="8"/>
  
  <!-- Navbar -->
  <rect x="10" y="10" width="380" height="40" fill="#0b2631" rx="4" ry="4" stroke="#063f52" stroke-width="1"/>
  <rect x="20" y="25" width="60" height="10" fill="#00de88" rx="2" ry="2"/>
  <rect x="100" y="25" width="40" height="10" fill="#3d5161" rx="2" ry="2"/>
  <rect x="160" y="25" width="40" height="10" fill="#3d5161" rx="2" ry="2"/>
  <rect x="220" y="25" width="40" height="10" fill="#3d5161" rx="2" ry="2"/>
  
  <!-- Card -->
  <rect x="10" y="60" width="380" height="140" fill="#0c3141" rx="10" ry="10" stroke="#063f52" stroke-width="1"/>
  <rect x="10" y="60" width="380" height="30" fill="#052735" rx="10" ry="10" stroke="#063f52" stroke-width="1"/>
  <rect x="20" y="70" width="100" height="10" fill="#e9ecef" rx="2" ry="2"/>
  
  <!-- Form elements -->
  <rect x="20" y="100" width="360" height="30" fill="#123c4d" rx="6" ry="6" stroke="#094659" stroke-width="1"/>
  <rect x="20" y="140" width="360" height="50" fill="#123c4d" rx="6" ry="6" stroke="#094659" stroke-width="1"/>
  
  <!-- Button -->
  <rect x="290" y="210" width="100" height="30" fill="#00de88" rx="6" ry="6"/>
  <rect x="315" y="220" width="50" height="10" fill="#052735" rx="2" ry="2"/>
  
  <!-- Charts -->
  <g transform="translate(30, 155)">
    <polyline points="0,25 20,20 40,24 60,10 80,15 100,5" fill="none" stroke="#00de88" stroke-width="2" stroke-linecap="round" stroke-linejoin="round"/>
    <circle cx="60" cy="10" r="3" fill="#00de88"/>
  </g>
  
  <!-- Progress Bar -->
  <rect x="140" y="155" width="100" height="10" rx="5" ry="5" fill="#052735"/>
  <rect x="140" y="155" width="70" height="10" rx="5" ry="5" fill="#00de88"/>
  
  <!-- Text -->
  <text x="20" y="230" font-family="Arial" font-size="16" fill="#e9ecef">Crystal Green Theme</text>
  <text x="300" y="180" font-family="Arial" font-size="20" fill="#00de88">85%</text>
</svg>