<?xml version="1.0" encoding="UTF-8" standalone="no"?>
<svg width="400" height="250" viewBox="0 0 400 250" xmlns="http://www.w3.org/2000/svg">
  <defs>
    <!-- Background gradient -->
    <radialGradient id="bg-gradient" cx="0.1" cy="0.1" r="1.5" fx="0.1" fy="0.1">
      <stop offset="0%" stop-color="#00de88" stop-opacity="0.1"/>
      <stop offset="100%" stop-color="#091a24" stop-opacity="0"/>
    </radialGradient>
    
    <!-- Glow effects -->
    <filter id="glow-green" x="-20%" y="-20%" width="140%" height="140%">
      <feGaussianBlur stdDeviation="3" result="blur"/>
      <feFlood flood-color="#00de88" flood-opacity="0.3" result="color"/>
      <feComposite in="color" in2="blur" operator="in" result="glow"/>
      <feMerge>
        <feMergeNode in="glow"/>
        <feMergeNode in="SourceGraphic"/>
      </feMerge>
    </filter>
    
    <!-- Glass effect -->
    <filter id="glass" x="0" y="0" width="100%" height="100%">
      <feGaussianBlur in="SourceGraphic" stdDeviation="1" result="blur"/>
      <feColorMatrix in="blur" type="matrix" values="1 0 0 0 0  0 1 0 0 0  0 0 1 0 0  0 0 0 19 -9" result="glass"/>
    </filter>
  </defs>
  
  <!-- Background -->
  <rect x="0" y="0" width="400" height="250" fill="#091a24" rx="8" ry="8"/>
  <rect x="0" y="0" width="400" height="250" fill="url(#bg-gradient)" rx="8" ry="8"/>
  
  <!-- Navbar - more transparent -->
  <rect x="10" y="10" width="380" height="40" fill="rgba(11, 38, 49, 0.8)" rx="10" ry="10" stroke="rgba(6, 63, 82, 0.4)" stroke-width="1" filter="url(#glass)"/>
  <rect x="20" y="25" width="60" height="10" fill="#00de88" rx="2" ry="2" filter="url(#glow-green)"/>
  <rect x="100" y="25" width="40" height="10" fill="#3d5161" rx="2" ry="2"/>
  <rect x="160" y="25" width="40" height="10" fill="#3d5161" rx="2" ry="2"/>
  <rect x="220" y="25" width="40" height="10" fill="#3d5161" rx="2" ry="2"/>
  
  <!-- Main Card - more transparent with glass effect -->
  <rect x="10" y="60" width="380" height="140" fill="rgba(12, 49, 65, 0.7)" rx="16" ry="16" stroke="rgba(6, 63, 82, 0.4)" stroke-width="1" filter="url(#glass)"/>
  <rect x="10" y="60" width="380" height="30" fill="rgba(5, 39, 53, 0.9)" rx="16" ry="16" stroke="rgba(6, 63, 82, 0.4)" stroke-width="1"/>
  <rect x="20" y="70" width="100" height="10" fill="#e9ecef" rx="2" ry="2"/>
  
  <!-- Form elements - more transparent -->
  <rect x="20" y="100" width="360" height="30" fill="rgba(18, 60, 77, 0.6)" rx="8" ry="8" stroke="rgba(9, 70, 89, 0.5)" stroke-width="1" filter="url(#glass)"/>
  <rect x="20" y="140" width="360" height="50" fill="rgba(18, 60, 77, 0.6)" rx="8" ry="8" stroke="rgba(9, 70, 89, 0.5)" stroke-width="1" filter="url(#glass)"/>
  
  <!-- Button with glow -->
  <rect x="290" y="210" width="100" height="30" fill="#00de88" rx="8" ry="8" filter="url(#glow-green)"/>
  <rect x="315" y="220" width="50" height="10" fill="#052735" rx="2" ry="2"/>
  
  <!-- Charts with glow -->
  <g transform="translate(30, 155)" filter="url(#glow-green)">
    <polyline points="0,25 20,20 40,24 60,10 80,15 100,5" fill="none" stroke="#00de88" stroke-width="2" stroke-linecap="round" stroke-linejoin="round"/>
    <circle cx="60" cy="10" r="3" fill="#00de88"/>
  </g>
  
  <!-- Progress Bar with glow -->
  <rect x="140" y="155" width="100" height="10" rx="5" ry="5" fill="rgba(5, 39, 53, 0.5)"/>
  <rect x="140" y="155" width="70" height="10" rx="5" ry="5" fill="#00de88" filter="url(#glow-green)"/>
  
  <!-- Gauge visualization -->
  <g transform="translate(300, 140)">
    <circle cx="0" cy="0" r="30" fill="none" stroke="rgba(18, 81, 106, 0.3)" stroke-width="4"/>
    <path d="M 0 0 L -15 -26" stroke="#e9ecef" stroke-width="1"/>
    <path d="M -30 0 A 30 30 0 0 1 30 0" stroke="#00de88" stroke-width="4" fill="none" filter="url(#glow-green)"/>
    <circle cx="0" cy="0" r="5" fill="#00de88" filter="url(#glow-green)"/>
  </g>
  
  <!-- Text with Orbitron font style -->
  <text x="20" y="230" font-family="'Orbitron', Arial" font-size="16" fill="#e9ecef" font-weight="bold" letter-spacing="1" filter="url(#glow-green)">Crystal Green Theme</text>
  <text x="260" y="145" font-family="'Orbitron', Arial" font-size="20" fill="#00de88" font-weight="bold" letter-spacing="1" filter="url(#glow-green)">85%</text>
</svg>