<?xml version="1.0" encoding="UTF-8" standalone="no"?>
<svg width="300" height="200" viewBox="0 0 300 200" xmlns="http://www.w3.org/2000/svg">
  <title>Dark Modern Theme Preview</title>
  
  <!-- Background -->
  <rect width="300" height="200" fill="#0f1824" rx="8" />
  
  <!-- Header -->
  <rect x="10" y="10" width="280" height="30" fill="#1a2332" rx="8" />
  <rect x="20" y="20" width="100" height="10" fill="#94a3b8" rx="2" />
  <circle cx="270" cy="25" r="8" fill="#3b82f6" />
  
  <!-- Sidebar -->
  <rect x="10" y="50" width="80" height="140" fill="#1a2332" rx="8" />
  <rect x="20" y="60" width="60" height="8" fill="#94a3b8" rx="2" />
  <rect x="20" y="80" width="60" height="8" fill="#94a3b8" rx="2" />
  <rect x="20" y="100" width="60" height="8" fill="#94a3b8" rx="2" />
  <rect x="20" y="120" width="60" height="8" fill="#94a3b8" rx="2" />
  <rect x="20" y="170" width="60" height="10" fill="#3b82f6" rx="8" />
  
  <!-- Main Content -->
  <rect x="100" y="50" width="190" height="70" fill="#1a2332" rx="8" />
  <rect x="110" y="60" width="170" height="10" fill="#94a3b8" rx="2" />
  
  <!-- Charts and Metrics -->
  <rect x="110" y="80" width="80" height="30" fill="#1e293b" rx="8" />
  <circle cx="130" cy="95" r="10" fill="none" stroke="#10b981" stroke-width="3" />
  <circle cx="160" cy="95" r="10" fill="none" stroke="#ef4444" stroke-width="3" />
  <rect x="200" y="80" width="80" height="30" fill="#1e293b" rx="8" />
  <rect x="210" y="90" width="10" height="15" fill="#3b82f6" rx="2" />
  <rect x="225" y="85" width="10" height="20" fill="#6366f1" rx="2" />
  <rect x="240" y="80" width="10" height="25" fill="#f59e0b" rx="2" />
  <rect x="255" y="90" width="10" height="15" fill="#10b981" rx="2" />
  <rect x="270" y="85" width="10" height="20" fill="#3b82f6" rx="2" />
  
  <!-- Table -->
  <rect x="100" y="130" width="190" height="60" fill="#1a2332" rx="8" />
  <rect x="110" y="140" width="170" height="8" fill="#94a3b8" rx="2" />
  <line x1="110" y1="155" x2="280" y2="155" stroke="#2d3748" stroke-width="1" />
  <rect x="110" y="160" width="60" height="8" fill="#94a3b8" rx="2" />
  <rect x="180" y="160" width="60" height="8" fill="#94a3b8" rx="2" />
  <linearGradient id="blueGradient" x1="0%" y1="0%" x2="100%" y2="0%">
    <stop offset="0%" stop-color="#3b82f6" />
    <stop offset="100%" stop-color="#6366f1" />
  </linearGradient>
  <rect x="250" y="160" width="30" height="10" fill="url(#blueGradient)" rx="8" />
  <rect x="110" y="175" width="60" height="8" fill="#94a3b8" rx="2" />
  <rect x="180" y="175" width="60" height="8" fill="#94a3b8" rx="2" />
  <rect x="250" y="175" width="30" height="10" fill="url(#blueGradient)" rx="8" />
</svg>