<?xml version="1.0" encoding="UTF-8" standalone="no"?>
<svg width="400" height="250" viewBox="0 0 400 250" xmlns="http://www.w3.org/2000/svg">
  <!-- Background -->
  <rect x="0" y="0" width="400" height="250" fill="#f8f9fa" rx="8" ry="8"/>
  
  <!-- Navbar -->
  <rect x="10" y="10" width="380" height="40" fill="#ffffff" rx="4" ry="4" stroke="#dee2e6" stroke-width="1"/>
  <rect x="20" y="25" width="60" height="10" fill="#0d6efd" rx="2" ry="2"/>
  <rect x="100" y="25" width="40" height="10" fill="#6c757d" rx="2" ry="2"/>
  <rect x="160" y="25" width="40" height="10" fill="#6c757d" rx="2" ry="2"/>
  <rect x="220" y="25" width="40" height="10" fill="#6c757d" rx="2" ry="2"/>
  
  <!-- Card -->
  <rect x="10" y="60" width="380" height="140" fill="#ffffff" rx="6" ry="6" stroke="#dee2e6" stroke-width="1"/>
  <rect x="10" y="60" width="380" height="30" fill="#f2f2f2" rx="6" ry="6" stroke="#dee2e6" stroke-width="1"/>
  <rect x="20" y="70" width="100" height="10" fill="#212529" rx="2" ry="2"/>
  
  <!-- Form elements -->
  <rect x="20" y="100" width="360" height="30" fill="#ffffff" rx="4" ry="4" stroke="#ced4da" stroke-width="1"/>
  <rect x="20" y="140" width="360" height="50" fill="#ffffff" rx="4" ry="4" stroke="#ced4da" stroke-width="1"/>
  
  <!-- Button -->
  <rect x="290" y="210" width="100" height="30" fill="#0d6efd" rx="4" ry="4"/>
  <rect x="315" y="220" width="50" height="10" fill="#ffffff" rx="2" ry="2"/>
  
  <!-- Text -->
  <text x="20" y="230" font-family="Arial" font-size="16" fill="#212529">Default Theme</text>
</svg>