<?xml version="1.0" encoding="UTF-8" standalone="no"?>
<svg width="300" height="200" viewBox="0 0 300 200" xmlns="http://www.w3.org/2000/svg">
  <title>Default Theme Preview</title>
  
  <!-- Background -->
  <rect width="300" height="200" fill="#212529" rx="8" />
  
  <!-- Header -->
  <rect x="10" y="10" width="280" height="30" fill="#343a40" rx="4" />
  <rect x="20" y="20" width="100" height="10" fill="#6c757d" rx="2" />
  <circle cx="270" cy="25" r="8" fill="#495057" />
  
  <!-- Sidebar -->
  <rect x="10" y="50" width="80" height="140" fill="#343a40" rx="4" />
  <rect x="20" y="60" width="60" height="8" fill="#6c757d" rx="2" />
  <rect x="20" y="80" width="60" height="8" fill="#6c757d" rx="2" />
  <rect x="20" y="100" width="60" height="8" fill="#6c757d" rx="2" />
  <rect x="20" y="120" width="60" height="8" fill="#6c757d" rx="2" />
  <rect x="20" y="170" width="60" height="10" fill="#0d6efd" rx="5" />
  
  <!-- Main Content -->
  <rect x="100" y="50" width="190" height="70" fill="#343a40" rx="4" />
  <rect x="110" y="60" width="170" height="10" fill="#6c757d" rx="2" />
  <rect x="110" y="80" width="100" height="30" fill="#495057" rx="4" />
  
  <!-- Table -->
  <rect x="100" y="130" width="190" height="60" fill="#343a40" rx="4" />
  <rect x="110" y="140" width="170" height="8" fill="#6c757d" rx="2" />
  <line x1="110" y1="155" x2="280" y2="155" stroke="#495057" stroke-width="1" />
  <rect x="110" y="160" width="60" height="8" fill="#6c757d" rx="2" />
  <rect x="180" y="160" width="60" height="8" fill="#6c757d" rx="2" />
  <rect x="250" y="160" width="30" height="10" fill="#0d6efd" rx="5" />
  <rect x="110" y="175" width="60" height="8" fill="#6c757d" rx="2" />
  <rect x="180" y="175" width="60" height="8" fill="#6c757d" rx="2" />
  <rect x="250" y="175" width="30" height="10" fill="#0d6efd" rx="5" />
</svg>